<svg id="visual" viewBox="0 0 960 540" width="960" height="540" xmlns="http://www.w3.org/2000/svg" xmlns:xlink="http://www.w3.org/1999/xlink" version="1.1"><rect x="0" y="0" width="960" height="540" fill="#ffffff"></rect><defs><linearGradient id="grad1_0" x1="43.8%" y1="0%" x2="100%" y2="100%"><stop offset="14.444444444444446%" stop-color="#ffe715" stop-opacity="1"></stop><stop offset="85.55555555555554%" stop-color="#ffe715" stop-opacity="1"></stop></linearGradient></defs><defs><linearGradient id="grad1_1" x1="43.8%" y1="0%" x2="100%" y2="100%"><stop offset="14.444444444444446%" stop-color="#ffe715" stop-opacity="1"></stop><stop offset="85.55555555555554%" stop-color="#ffffff" stop-opacity="1"></stop></linearGradient></defs><defs><linearGradient id="grad2_0" x1="0%" y1="0%" x2="56.3%" y2="100%"><stop offset="14.444444444444446%" stop-color="#ffe715" stop-opacity="1"></stop><stop offset="85.55555555555554%" stop-color="#ffe715" stop-opacity="1"></stop></linearGradient></defs><defs><linearGradient id="grad2_1" x1="0%" y1="0%" x2="56.3%" y2="100%"><stop offset="14.444444444444446%" stop-color="#ffffff" stop-opacity="1"></stop><stop offset="85.55555555555554%" stop-color="#ffe715" stop-opacity="1"></stop></linearGradient></defs><g transform="translate(960, 0)"><path d="M0 486C-26.5 427.6 -53 369.1 -80.3 351.9C-107.6 334.8 -135.7 358.9 -182.7 379.3C-229.6 399.8 -295.3 416.6 -303 380C-310.7 343.4 -260.3 253.3 -275.2 219.5C-290.1 185.7 -370.4 208.1 -409 197C-447.6 185.9 -444.5 141.2 -450.4 102.8C-456.3 64.4 -471.1 32.2 -486 0L0 0Z" fill="#fff29c"></path><path d="M0 243C-13.3 213.8 -26.5 184.6 -40.2 176C-53.8 167.4 -67.9 179.4 -91.3 189.7C-114.8 199.9 -147.7 208.3 -151.5 190C-155.3 171.7 -130.1 126.6 -137.6 109.7C-145.1 92.8 -185.2 104 -204.5 98.5C-223.8 92.9 -222.3 70.6 -225.2 51.4C-228.1 32.2 -235.6 16.1 -243 0L0 0Z" fill="#ffe715"></path></g><g transform="translate(0, 540)"><path d="M0 -486C24.7 -439.5 49.3 -393 90.8 -397.8C132.3 -402.5 190.6 -458.5 210.9 -437.9C231.1 -417.2 213.4 -319.8 217 -272.1C220.6 -224.3 245.6 -226.2 271.3 -216.4C297 -206.5 323.5 -185.1 334.3 -161C345 -136.8 340 -110.1 362.7 -82.8C385.3 -55.5 435.7 -27.8 486 0L0 0Z" fill="#fff29c"></path><path d="M0 -243C12.3 -219.8 24.7 -196.5 45.4 -198.9C66.1 -201.3 95.3 -229.3 105.4 -218.9C115.6 -208.6 106.7 -159.9 108.5 -136C110.3 -112.2 122.8 -113.1 135.6 -108.2C148.5 -103.3 161.8 -92.5 167.1 -80.5C172.5 -68.4 170 -55 181.3 -41.4C192.7 -27.8 217.8 -13.9 243 0L0 0Z" fill="#ffe715"></path></g></svg>